<?xml version="1.0" standalone="no"?>
<!DOCTYPE svg PUBLIC "-//W3C//DTD SVG 20010904//EN"
 "http://www.w3.org/TR/2001/REC-SVG-20010904/DTD/svg10.dtd">
<svg version="1.0" xmlns="http://www.w3.org/2000/svg"
 width="700.000000pt" height="700.000000pt" viewBox="0 0 700.000000 700.000000"
 preserveAspectRatio="xMidYMid meet">
<metadata>
Created by potrace 1.14, written by Peter Selinger 2001-2017
</metadata>
<g transform="translate(0.000000,700.000000) scale(0.100000,-0.100000)"
fill="#000000" stroke="none">
<path d="M805 6980 c-172 -20 -368 -122 -516 -269 -127 -126 -210 -272 -256
-451 l-25 -95 -5 -1295 c-2 -712 0 -1925 5 -2695 11 -1577 3 -1439 92 -1620
118 -240 314 -413 573 -504 l102 -36 2675 0 c2098 0 2697 3 2775 13 277 35
568 274 695 571 70 163 65 -80 65 2911 l0 2715 -29 85 c-57 171 -129 285 -256
410 -96 95 -215 171 -344 221 -68 26 -102 33 -211 40 -155 10 -5253 9 -5340
-1z m3994 -1877 c196 -39 355 -125 502 -272 148 -149 230 -290 303 -520 61
-195 77 -297 85 -573 10 -310 -2 -731 -24 -853 -34 -190 -132 -431 -231 -565
-64 -87 -202 -220 -286 -277 -85 -56 -195 -103 -314 -134 -78 -21 -111 -24
-269 -23 -167 0 -186 2 -269 27 -395 122 -673 426 -780 853 -107 427 -98 1153
18 1559 117 405 351 654 713 761 152 44 380 52 552 17z m-2037 -16 c52 -30
104 -90 137 -155 22 -42 23 -59 33 -590 5 -301 8 -896 5 -1322 -4 -654 -7
-786 -21 -843 -46 -205 -156 -301 -341 -301 -106 0 -185 34 -254 110 -90 98
-84 25 -90 1076 -3 509 -9 929 -12 932 -3 3 -73 -37 -155 -91 -190 -124 -297
-178 -391 -199 -132 -29 -214 -5 -297 86 -97 109 -103 298 -12 392 18 19 120
80 237 142 378 201 473 279 713 589 75 97 138 177 139 177 1 0 20 7 42 15 28
11 68 14 130 12 78 -2 98 -7 137 -30z"/>
<path d="M4460 4539 c-161 -47 -246 -236 -281 -628 -16 -188 -6 -810 15 -953
54 -351 152 -493 352 -506 233 -15 367 161 413 548 22 179 32 523 21 746 -22
457 -100 696 -254 777 -32 16 -62 21 -136 23 -52 2 -111 -2 -130 -7z"/>
</g>
</svg>
